<mxfile host="app.diagrams.net" modified="2024-04-08T21:18:04.060Z" agent="Mozilla/5.0 (Windows NT 10.0; Win64; x64) AppleWebKit/537.36 (KHTML, like Gecko) Chrome/123.0.0.0 Safari/537.36" etag="JBEf3ptXaXJQJ7-Fz7Zu" version="24.2.3" type="github">
  <diagram name="Page-1" id="x1DN1nLivGBnPnscxvWS">
    <mxGraphModel dx="1111" dy="676" grid="1" gridSize="10" guides="1" tooltips="1" connect="1" arrows="1" fold="1" page="1" pageScale="1" pageWidth="827" pageHeight="1169" math="0" shadow="0">
      <root>
        <mxCell id="0" />
        <mxCell id="1" parent="0" />
        <mxCell id="pR162YDgCy7yolBOsbA_-6" style="edgeStyle=orthogonalEdgeStyle;rounded=0;orthogonalLoop=1;jettySize=auto;html=1;endArrow=none;endFill=0;" edge="1" parent="1" source="pR162YDgCy7yolBOsbA_-1" target="pR162YDgCy7yolBOsbA_-3">
          <mxGeometry relative="1" as="geometry" />
        </mxCell>
        <mxCell id="pR162YDgCy7yolBOsbA_-1" value="LandLord" style="shape=umlActor;verticalLabelPosition=bottom;verticalAlign=top;html=1;" vertex="1" parent="1">
          <mxGeometry x="90" y="150" width="30" height="60" as="geometry" />
        </mxCell>
        <mxCell id="pR162YDgCy7yolBOsbA_-2" value="frame" style="shape=umlFrame;whiteSpace=wrap;html=1;pointerEvents=0;" vertex="1" parent="1">
          <mxGeometry x="190" y="120" width="300" height="200" as="geometry" />
        </mxCell>
        <mxCell id="pR162YDgCy7yolBOsbA_-3" value="Login" style="ellipse;whiteSpace=wrap;html=1;" vertex="1" parent="1">
          <mxGeometry x="270" y="145" width="140" height="70" as="geometry" />
        </mxCell>
      </root>
    </mxGraphModel>
  </diagram>
</mxfile>
